<?xml version="1.0" encoding="UTF-8"?>
<!DOCTYPE svg PUBLIC "-//W3C//DTD SVG 1.1//EN" "http://www.w3.org/Graphics/SVG/1.1/DTD/svg11.dtd">
<!-- Creator: CorelDRAW 2017 -->
<svg xmlns="http://www.w3.org/2000/svg" xml:space="preserve" width="918px" height="94px" version="1.1" style="shape-rendering:geometricPrecision; text-rendering:geometricPrecision; image-rendering:optimizeQuality; fill-rule:evenodd; clip-rule:evenodd"
viewBox="0 0 403.059 41.188"
 xmlns:xlink="http://www.w3.org/1999/xlink">
 <defs>
  <style type="text/css">
   <![CDATA[
    .fil0 {fill:white;fill-rule:nonzero}
   ]]>
  </style>
 </defs>
 <g id="Слой_x0020_1">
  <metadata id="CorelCorpID_0Corel-Layer"/>
  <path class="fil0" d="M0 41.188l0 -8.826 10.301 0 0 2.942 -1.475 2.943 0 2.941 -8.826 0zm10.301 0l0 -2.941 1.467 -2.943 0 -2.942 14.71 0 0 -5.884 -26.478 0 0 -26.478 41.188 0 0 8.826 -26.478 0 0 5.884 2.942 0 0 2.942 1.475 2.942 0 -5.884 22.061 0 0 8.826 -2.942 0 2.942 1.467 0 16.185 -30.887 0z"/>
  <path id="1" class="fil0" d="M70.609 41.188l0 -8.826 7.359 0 1.467 1.467 8.826 0 0 7.359 -17.652 0zm5.884 -17.652l0 -5.884 -5.884 0 0 -2.942 5.884 0 0 -5.884 -5.884 0 0 5.884 -5.884 0 0 -5.884 -5.884 0 0 5.884 5.884 0 0 2.942 -5.884 0 0 5.884 4.417 0 0 -2.942 8.826 0 0 2.942 4.409 0zm-29.42 17.652l0 -41.188 41.188 0 0 32.362 -10.293 0 -1.475 -1.475 -5.884 0 0 -1.467 -5.884 0 0 11.768 -5.884 0 -1.467 -2.941 -1.475 2.941 -8.826 0z"/>
  <path id="2" class="fil0" d="M120.623 32.362l-2.941 -1.475 0 -5.884 -5.885 0 0 7.359 8.826 0zm-2.941 -16.185l0 -7.351 -5.885 0 0 4.409 -2.942 1.475 2.942 0 0 1.467 5.885 0zm-23.537 25.011l0 -41.188 41.189 0 0 19.119 -5.884 0 0 2.942 5.884 0 0 19.127 -8.826 0 -2.942 -1.474 -2.943 1.474 -14.71 0 0 -2.941 -1.467 -2.943 0 5.884 -10.301 0z"/>
  <path id="3" class="fil0" d="M172.113 41.188l0 -8.826 10.293 0 0 8.826 -10.293 0zm-30.895 0l0 -23.536 8.826 0 -2.942 -1.475 -5.884 0 0 -16.177 14.71 0 0 30.887 -2.942 1.475 17.652 0 0 5.885 1.475 2.941 -30.895 0z"/>
  <polygon id="4" class="fil0" points="188.29,41.188 188.29,0 203.001,0 203.001,8.826 197.117,8.826 200.059,10.293 203.001,10.293 203.001,41.188 194.174,41.188 192.707,38.247 192.707,41.188 "/>
  <path id="5" class="fil0" d="M208.885 41.188l0 -10.301 14.71 0 0 10.301 -8.826 0 -1.467 -2.941 0 2.941 -4.417 0zm26.478 0l0 -10.301 8.826 0 0 10.301 -8.826 0zm10.301 0l0 -11.768 -16.185 0 0 -8.826 -5.884 0 0 8.826 -14.71 0 0 -29.42 14.71 0 0 7.351 -2.942 0 -2.942 1.475 11.768 0 0 8.826 5.884 0 0 -8.826 2.942 0 2.942 1.467 8.826 0 0 30.895 -4.409 0zm-4.417 -32.362l-2.942 -1.475 -2.942 0 0 -7.351 14.71 0 0 8.826 -8.826 0z"/>
  <path id="6" class="fil0" d="M255.957 41.188l0 -8.826 10.301 0 0 2.942 -1.475 2.943 0 2.941 -8.826 0zm10.301 0l0 -2.941 1.467 -2.943 0 -2.942 14.711 0 0 -5.884 -26.479 0 0 -26.478 41.189 0 0 8.826 -26.479 0 0 5.884 2.942 0 0 2.942 1.475 2.942 0 -5.884 22.062 0 0 8.826 -2.942 0 2.942 1.467 0 16.185 -30.888 0z"/>
  <polygon id="7" class="fil0" points="303.03,41.188 303.03,35.304 308.914,35.304 308.914,41.188 "/>
  <path id="8" class="fil0" d="M338.334 16.177l0 -7.351 -5.884 0 0 7.351 5.884 0zm-23.536 25.011l0 -41.188 41.189 0 0 17.652 -5.884 0 0 2.942 5.884 0 0 20.594 -17.653 0 0 -14.71 -5.884 0 0 14.71 -17.652 0z"/>
  <polygon id="9" class="fil0" points="361.871,41.188 361.871,0 379.523,0 379.523,32.362 385.407,32.362 385.407,0 403.059,0 403.059,41.188 "/>
 </g>
</svg>
