<?xml version="1.0" encoding="UTF-8"?>
<!DOCTYPE svg PUBLIC "-//W3C//DTD SVG 1.1//EN" "http://www.w3.org/Graphics/SVG/1.1/DTD/svg11.dtd">
<!-- Creator: CorelDRAW 2017 -->
<svg xmlns="http://www.w3.org/2000/svg" xml:space="preserve" width="1635px" height="301px" version="1.1" style="shape-rendering:geometricPrecision; text-rendering:geometricPrecision; image-rendering:optimizeQuality; fill-rule:evenodd; clip-rule:evenodd"
viewBox="0 0 1060.887 195.566"
 xmlns:xlink="http://www.w3.org/1999/xlink">
 <defs>
  <style type="text/css">
   <![CDATA[
    .fil5 {fill:white}
    .fil3 {fill:#582269}
    .fil2 {fill:#67297A}
    .fil1 {fill:#FFC477}
    .fil0 {fill:#FFEB99}
    .fil4 {fill:#582269;fill-rule:nonzero}
   ]]>
  </style>
 </defs>
 <g id="Слой_x0020_1">
  <metadata id="CorelCorpID_0Corel-Layer"/>
  <g id="_2572860847216">
   <path class="fil0" d="M32.979 45.012l0 28.998 14.601 0 0 -28.998c0,-16.769 13.642,-30.412 30.411,-30.412l9.733 -8.03 -9.733 -6.57c-24.82,0 -45.012,20.192 -45.012,45.012z"/>
   <path class="fil1" d="M77.991 0l0 14.6c16.77,0 30.412,13.643 30.412,30.412l0 28.998 14.6 0 0 -28.998c0,-24.82 -20.192,-45.012 -45.012,-45.012z"/>
  </g>
  <polygon class="fil2" points="10.326,47.623 146.269,47.623 156.595,195.566 135.942,195.566 20.652,195.566 0,195.566 "/>
  <polygon class="fil3" points="146.269,47.623 78.73,47.623 78.73,195.566 135.943,195.566 156.595,195.566 "/>
  <path class="fil4" d="M294.261 161.044l-32.363 0 -33.344 -64.343 -0.554 0c0.789,10.127 1.172,17.845 1.172,23.175l0 41.168 -21.852 0 0 -91.333 32.235 0 33.216 63.468 0.383 0c-0.597,-9.21 -0.874,-16.587 -0.874,-22.172l0 -41.296 21.981 0 0 91.333zm52.467 1.279c-11.79,0 -20.936,-3.134 -27.46,-9.402 -6.502,-6.268 -9.764,-15.201 -9.764,-26.777 0,-11.961 3.006,-21.128 9.061,-27.524 6.033,-6.396 14.646,-9.594 25.839,-9.594 10.66,0 18.889,2.772 24.709,8.336 5.799,5.565 8.699,13.581 8.699,24.027l0 10.873 -43.641 0c0.17,3.944 1.62,7.057 4.349,9.295 2.707,2.239 6.438,3.369 11.129,3.369 4.285,0 8.229,-0.405 11.832,-1.215 3.603,-0.81 7.504,-2.196 11.704,-4.157l0 17.588c-3.816,1.94 -7.781,3.305 -11.853,4.051 -4.072,0.746 -8.955,1.13 -14.604,1.13zm-1.45 -56.667c-2.857,0 -5.266,0.916 -7.206,2.729 -1.94,1.812 -3.07,4.647 -3.39,8.527l20.957 0c-0.085,-3.411 -1.044,-6.14 -2.899,-8.186 -1.855,-2.047 -4.328,-3.07 -7.462,-3.07zm81.036 37.351c3.283,0 7.227,-0.81 11.789,-2.43l0 17.802c-3.283,1.428 -6.417,2.43 -9.402,3.027 -2.963,0.618 -6.46,0.917 -10.446,0.917 -8.208,0 -14.114,-2.004 -17.738,-6.034 -3.624,-4.008 -5.437,-10.19 -5.437,-18.526l0 -29.165 -8.57 0 0 -9.935 10.873 -7.675 6.31 -14.86 15.99 0 0 14.178 17.375 0 0 18.292 -17.375 0 0 27.544c0,4.584 2.196,6.865 6.631,6.865zm66.26 -54.364c-5.863,0 -10.446,2.409 -13.73,7.206 -3.304,4.818 -4.946,11.448 -4.946,19.912 0,17.567 6.695,26.351 20.062,26.351 4.029,0 7.952,-0.555 11.747,-1.684 3.774,-1.13 7.59,-2.473 11.427,-4.072l0 20.893c-7.632,3.389 -16.245,5.074 -25.86,5.074 -13.794,0 -24.347,-4.008 -31.702,-12.003 -7.356,-7.995 -11.022,-19.55 -11.022,-34.666 0,-9.444 1.769,-17.759 5.329,-24.922 3.561,-7.163 8.677,-12.664 15.372,-16.523 6.694,-3.858 14.54,-5.777 23.579,-5.777 9.871,0 19.294,2.132 28.291,6.417l-7.547 19.422c-3.368,-1.599 -6.758,-2.921 -10.127,-4.008 -3.368,-1.087 -6.993,-1.62 -10.873,-1.62zm108.474 36.882c0,11.577 -3.113,20.595 -9.338,27.076 -6.204,6.481 -14.924,9.722 -26.117,9.722 -10.744,0 -19.294,-3.305 -25.626,-9.935 -6.353,-6.631 -9.529,-15.585 -9.529,-26.863 0,-11.555 3.112,-20.509 9.338,-26.905 6.225,-6.396 14.944,-9.594 26.18,-9.594 6.95,0 13.09,1.471 18.42,4.435 5.33,2.963 9.444,7.206 12.344,12.728 2.878,5.5 4.328,11.96 4.328,19.336zm-45.816 -0.042c0,6.076 0.81,10.723 2.431,13.9 1.62,3.177 4.349,4.776 8.186,4.776 3.774,0 6.439,-1.599 8.016,-4.776 1.557,-3.177 2.324,-7.824 2.324,-13.9 0,-6.034 -0.789,-10.596 -2.366,-13.666 -1.578,-3.091 -4.286,-4.626 -8.102,-4.626 -3.752,0 -6.438,1.535 -8.058,4.583 -1.621,3.07 -2.431,7.633 -2.431,13.709zm102.461 -36.457c2.132,0 4.158,0.171 6.055,0.491l1.386 0.255 -2.196 23.047c-1.983,-0.49 -4.754,-0.746 -8.293,-0.746 -5.33,0 -9.189,1.215 -11.598,3.645 -2.43,2.452 -3.624,5.948 -3.624,10.532l0 34.794 -24.432 0 0 -70.738 18.185 0 3.816 11.278 1.173 0c2.047,-3.753 4.882,-6.78 8.528,-9.082 3.645,-2.324 7.312,-3.476 11,-3.476zm48.929 73.297c-11.79,0 -20.936,-3.134 -27.46,-9.402 -6.502,-6.268 -9.764,-15.201 -9.764,-26.777 0,-11.961 3.006,-21.128 9.061,-27.524 6.033,-6.396 14.646,-9.594 25.839,-9.594 10.66,0 18.889,2.772 24.709,8.336 5.799,5.565 8.699,13.581 8.699,24.027l0 10.873 -43.641 0c0.17,3.944 1.62,7.057 4.349,9.295 2.707,2.239 6.438,3.369 11.128,3.369 4.286,0 8.23,-0.405 11.833,-1.215 3.603,-0.81 7.504,-2.196 11.704,-4.157l0 17.588c-3.816,1.94 -7.781,3.305 -11.853,4.051 -4.072,0.746 -8.955,1.13 -14.604,1.13zm-1.45 -56.667c-2.857,0 -5.266,0.916 -7.206,2.729 -1.94,1.812 -3.07,4.647 -3.39,8.527l20.957 0c-0.085,-3.411 -1.044,-6.14 -2.899,-8.186 -1.855,-2.047 -4.328,-3.07 -7.462,-3.07zm107.493 27.672c0,5.671 -1.429,10.703 -4.307,15.094 -2.878,4.392 -7.014,7.803 -12.429,10.255 -5.415,2.431 -11.768,3.646 -19.038,3.646 -6.076,0 -11.193,-0.427 -15.308,-1.279 -4.114,-0.853 -8.399,-2.345 -12.855,-4.478l0 -22.001c4.69,2.409 9.593,4.285 14.668,5.649 5.074,1.343 9.743,2.026 13.985,2.026 3.667,0 6.353,-0.64 8.059,-1.898 1.705,-1.258 2.558,-2.899 2.558,-4.882 0,-1.258 -0.341,-2.345 -1.045,-3.283 -0.682,-0.938 -1.79,-1.876 -3.304,-2.835 -1.514,-0.96 -5.564,-2.921 -12.152,-5.885 -5.948,-2.707 -10.404,-5.329 -13.389,-7.866 -2.963,-2.538 -5.18,-5.458 -6.609,-8.741 -1.428,-3.284 -2.153,-7.185 -2.153,-11.684 0,-8.399 3.049,-14.966 9.167,-19.677 6.119,-4.712 14.54,-7.057 25.243,-7.057 9.444,0 19.081,2.174 28.909,6.545l-7.547 19.017c-8.549,-3.902 -15.905,-5.863 -22.109,-5.863 -3.198,0 -5.543,0.576 -6.992,1.705 -1.471,1.131 -2.196,2.538 -2.196,4.201 0,1.79 0.938,3.411 2.793,4.818 1.854,1.407 6.865,3.987 15.072,7.739 7.867,3.539 13.325,7.355 16.395,11.406 3.049,4.072 4.584,9.167 4.584,15.328zm57.242 27.716l0 -38.589c0,-9.487 -2.814,-14.241 -8.442,-14.241 -3.987,0 -6.95,1.684 -8.848,5.031 -1.876,3.347 -2.835,8.912 -2.835,16.694l0 31.105 -24.411 0 0 -97.217 24.411 0 0 13.815c0,6.246 -0.341,13.367 -1.002,21.383l1.13 0c2.324,-3.667 5.095,-6.246 8.314,-7.76 3.198,-1.493 6.929,-2.239 11.172,-2.239 7.909,0 14.071,2.282 18.462,6.844 4.392,4.562 6.588,10.937 6.588,19.145l0 46.029 -24.539 0zm108.708 -35.519c0,11.577 -3.112,20.595 -9.338,27.076 -6.204,6.481 -14.923,9.722 -26.116,9.722 -10.745,0 -19.294,-3.305 -25.626,-9.935 -6.353,-6.631 -9.53,-15.585 -9.53,-26.863 0,-11.555 3.113,-20.509 9.338,-26.905 6.225,-6.396 14.945,-9.594 26.18,-9.594 6.951,0 13.091,1.471 18.42,4.435 5.33,2.963 9.445,7.206 12.344,12.728 2.879,5.5 4.328,11.96 4.328,19.336zm-45.815 -0.042c0,6.076 0.81,10.723 2.43,13.9 1.62,3.177 4.349,4.776 8.187,4.776 3.773,0 6.438,-1.599 8.016,-4.776 1.556,-3.177 2.324,-7.824 2.324,-13.9 0,-6.034 -0.789,-10.596 -2.367,-13.666 -1.577,-3.091 -4.285,-4.626 -8.101,-4.626 -3.752,0 -6.439,1.535 -8.059,4.583 -1.62,3.07 -2.43,7.633 -2.43,13.709zm102.248 36.84c-3.582,0 -6.801,-0.597 -9.636,-1.791 -2.815,-1.173 -5.629,-3.305 -8.422,-6.396l-1.13 0c0.747,4.946 1.13,8.016 1.13,9.231l0 28.377 -24.432 0 0 -101.438 19.87 0 3.432 8.975 1.13 0c4.541,-6.843 10.809,-10.255 18.804,-10.255 7.824,0 13.964,3.241 18.42,9.744 4.456,6.502 6.673,15.413 6.673,26.755 0,11.406 -2.324,20.403 -6.95,26.948 -4.648,6.566 -10.958,9.85 -18.889,9.85zm-8.187 -54.109c-3.581,0 -6.097,1.279 -7.526,3.837 -1.449,2.559 -2.217,6.354 -2.345,11.406l0 1.919c0,6.098 0.81,10.489 2.431,13.197 1.62,2.707 4.178,4.051 7.675,4.051 3.134,0 5.394,-1.344 6.822,-4.03 1.407,-2.686 2.111,-7.12 2.111,-13.324 0,-6.077 -0.704,-10.447 -2.111,-13.091 -1.428,-2.643 -3.773,-3.965 -7.057,-3.965z"/>
  <path class="fil5" d="M40.859 151.102c4.3,0 7.786,3.486 7.786,7.786 0,4.3 -3.486,7.787 -7.786,7.787 -4.301,0 -7.787,-3.487 -7.787,-7.787 0,-4.3 3.486,-7.786 7.787,-7.786z"/>
 </g>
</svg>
